<svg width="198" height="91" viewBox="0 0 198 91" fill="none" xmlns="http://www.w3.org/2000/svg">
<path d="M106.16 32.984C105.2 33.624 104.048 34.184 102.704 34.664V50.216L99.776 53.096V35.192H99.152C95.792 35.192 92.928 34.024 90.56 31.688C88.224 29.352 87.056 26.488 87.056 23.096C87.056 19.736 88.224 16.888 90.56 14.552C92.928 12.184 95.792 11 99.152 11H102.704V31.544C103.472 31.192 104.048 30.856 104.432 30.536L106.16 32.984ZM99.776 13.928H99.152C96.464 13.928 94.272 14.872 92.576 16.76C90.88 18.616 90.032 20.728 90.032 23.096C90.032 25.816 90.96 28.024 92.816 29.72C94.672 31.384 96.784 32.216 99.152 32.216H99.776V13.928ZM115.49 47H110.69V44.024H115.49C116.866 44.024 118.018 43.528 118.946 42.536C119.906 41.544 120.386 40.408 120.386 39.128C120.386 38.392 120.29 37.784 120.098 37.304L112.514 20.84C112.13 19.976 111.938 19.016 111.938 17.96C111.938 16.072 112.61 14.44 113.954 13.064C115.298 11.688 116.93 11 118.85 11H122.402V13.928H118.85C117.794 13.928 116.866 14.312 116.066 15.08C115.266 15.848 114.866 16.808 114.866 17.96C114.866 18.568 114.978 19.096 115.202 19.544L122.642 35.864C123.122 36.824 123.362 37.912 123.362 39.128C123.362 41.272 122.578 43.128 121.01 44.696C119.474 46.232 117.634 47 115.49 47ZM132.656 47H127.856V44.024H132.656C134.032 44.024 135.184 43.528 136.112 42.536C137.072 41.544 137.552 40.408 137.552 39.128C137.552 38.392 137.456 37.784 137.264 37.304L129.68 20.84C129.296 19.976 129.104 19.016 129.104 17.96C129.104 16.072 129.776 14.44 131.12 13.064C132.464 11.688 134.096 11 136.016 11H139.568V13.928H136.016C134.96 13.928 134.032 14.312 133.232 15.08C132.432 15.848 132.032 16.808 132.032 17.96C132.032 18.568 132.144 19.096 132.368 19.544L139.808 35.864C140.288 36.824 140.528 37.912 140.528 39.128C140.528 41.272 139.744 43.128 138.176 44.696C136.64 46.232 134.8 47 132.656 47ZM147.614 22.856H145.982L145.022 19.976H147.614V16.856C147.614 15.16 148.19 13.704 149.342 12.488C150.526 11.272 151.998 10.664 153.758 10.664C154.718 10.664 155.534 10.824 156.206 11.144C156.878 11.432 157.502 11.864 158.078 12.44C158.686 13.016 159.15 13.672 159.47 14.408C159.79 15.144 159.95 15.96 159.95 16.856V47H157.022V22.856H150.59V47H147.614V22.856ZM157.022 19.976V16.856C157.022 15.992 156.734 15.224 156.158 14.552C155.614 13.88 154.814 13.544 153.758 13.544C152.926 13.544 152.19 13.832 151.55 14.408C150.91 14.952 150.59 15.768 150.59 16.856V19.976H157.022ZM183.3 44.024V46.952C179.908 46.952 176.756 46.184 173.844 44.648C170.932 43.112 168.644 40.984 166.98 38.264C165.316 35.512 164.484 32.456 164.484 29.096C164.484 25.672 165.3 22.6 166.932 19.88C168.596 17.128 170.9 14.968 173.844 13.4C176.788 11.8 179.94 11 183.3 11V13.976C179.076 13.976 175.828 14.984 173.556 17C171.284 19.016 169.7 20.952 168.804 22.808C167.908 24.664 167.46 26.76 167.46 29.096C167.46 31.72 168.116 34.184 169.428 36.488C170.772 38.792 172.644 40.632 175.044 42.008C177.476 43.352 180.228 44.024 183.3 44.024Z" fill="#333333"/>
<path d="M33.792 81.512C30.016 81.512 26.56 80.6 23.424 78.776C20.32 76.952 17.808 74.44 15.888 71.24C14 68.008 13.056 64.52 13.056 60.776C13.056 58.024 13.584 55.368 14.64 52.808C15.728 50.248 17.2 48.024 19.056 46.136C20.912 44.248 23.136 42.76 25.728 41.672C28.352 40.584 31.04 40.04 33.792 40.04V43.016C28.736 43.016 24.512 44.792 21.12 48.344C17.728 51.864 16.032 56.008 16.032 60.776C16.032 65.832 17.792 70.072 21.312 73.496C24.832 76.888 28.992 78.584 33.792 78.584V81.512ZM43.8521 77H40.8761V52.856H39.2441L38.2841 49.976H40.8761V41H43.8521V49.976H50.4761V41H53.4521V77H50.4761V52.856H43.8521V77ZM63.501 43.928V49.976H70.029L71.037 52.856H63.501V74.024H70.173V77H60.525V52.856H58.941L57.981 49.976H60.525V41H70.173V43.928H63.501ZM81.1365 77H78.1605V52.856H76.5285L75.5685 49.976H78.1605V41H87.8085V43.928H81.1365V49.976H87.6645L88.6725 52.856H81.1365V77Z" fill="#333333"/>
<line x1="14" y1="23" x2="77" y2="23" stroke="#333333" stroke-width="2" stroke-linecap="round"/>
<line x1="101" y1="65.0001" x2="181.996" y2="65.0065" stroke="#333333" stroke-width="2" stroke-linecap="round"/>
</svg>
